/* XPM */ 
static const unsigned char * passerelle_xpm[] = {
"48 48 256 2",
"  	c None",
"! 	c black",
"# 	c #FCFCFC",
"$ 	c #99999D",
"% 	c #E1E2E4",
"& 	c #F9F9F9",
"' 	c #858488",
"( 	c #3A3232",
") 	c #49464A",
"* 	c #D8DCDD",
"+ 	c #7E7D81",
", 	c #3A3635",
"- 	c #D98F26",
". 	c #796550",
"0 	c #454245",
"1 	c #EBECEE",
"2 	c #F6F6F6",
"3 	c #514640",
"4 	c #D48D2D",
"5 	c #F18D00",
"6 	c #F18F00",
"7 	c #886E51",
"8 	c #474448",
"9 	c #D6DADB",
": 	c #646469",
"; 	c #473F3C",
"< 	c #E28E16",
"= 	c #F29200",
"> 	c #F29000",
"? 	c #333235",
"@ 	c #DCDFE0",
"A 	c #8B8A8E",
"B 	c #535358",
"C 	c #F4F4F4",
"D 	c #564B44",
"E 	c #E58F0E",
"F 	c #907351",
"G 	c #313033",
"H 	c #D1D2D4",
"I 	c #66534A",
"J 	c #F19000",
"K 	c #F39800",
"L 	c #F39600",
"M 	c #AB804A",
"N 	c #353438",
"O 	c #7A797D",
"P 	c #D7922E",
"Q 	c #DF8014",
"R 	c #E36700",
"S 	c #EC8500",
"T 	c #413E41",
"U 	c #5D5D62",
"V 	c #5B4F46",
"W 	c #9C794F",
"X 	c #72614D",
"Y 	c #4C413E",
"Z 	c #AD4C32",
"[ 	c #CE1311",
"] 	c #D0030F",
"^ 	c #CE000E",
"_ 	c #D11B09",
"` 	c #DA4900",
"a 	c #F08900",
"b 	c #3A373A",
"c 	c #CDCED0",
"d 	c #6D6C70",
"e 	c #EC8E00",
"f 	c #312E2F",
"g 	c #1B1B1F",
"h 	c #332C2E",
"i 	c #B7452B",
"j 	c #29282A",
"k 	c #CACBCC",
"l 	c #5B5A5F",
"m 	c #1E1D20",
"n 	c #A34F37",
"o 	c #815446",
"p 	c #CC2316",
"q 	c #CE0B10",
"r 	c #DC5700",
"s 	c #F09200",
"t 	c #363335",
"u 	c #CFD0D2",
"v 	c #443A39",
"w 	c #4C4541",
"x 	c #463E3B",
"y 	c #654C45",
"z 	c #CD1B13",
"{ 	c #423636",
"| 	c #493B3A",
"} 	c #473938",
"~ 	c #282427",
" !	c #2D2C2E",
"!!	c #C3C4C8",
"#!	c #575348",
"$!	c #B0A054",
"%!	c #A79856",
"&!	c #A69758",
"'!	c #AB9C56",
"(!	c #7A7257",
")!	c #1C1B20",
"*!	c #564341",
"+!	c #201F23",
",!	c #96533E",
"-!	c #924E3E",
".!	c #986E48",
"0!	c #A59957",
"1!	c #847B59",
"2!	c #69634F",
"3!	c #F4D400",
"4!	c #FFDB00",
"5!	c #FFD900",
"6!	c #998D59",
"7!	c #C5321E",
"8!	c #C23822",
"9!	c #2F2E31",
":!	c #C1C2C6",
";!	c #765246",
"<!	c #CA2B19",
"=!	c #FBCB00",
">!	c #FFDD00",
"?!	c #2A282B",
"@!	c #F0F0F0",
"A!	c #2E2C2E",
"B!	c #885443",
"C!	c #C05E2B",
"D!	c #252326",
"E!	c #272426",
"F!	c #6C4E46",
"G!	c #F4B600",
"H!	c #FFE300",
"I!	c #BAA850",
"J!	c #3C383A",
"K!	c #68676B",
"L!	c #5E594D",
"M!	c #FDD900",
"N!	c #E4C92B",
"O!	c #D32B07",
"P!	c #FCD300",
"Q!	c #EB9A00",
"R!	c #222125",
"S!	c #675B4D",
"T!	c #D3BB41",
"U!	c #1D1C21",
"V!	c #DD6600",
"W!	c #FFDF00",
"X!	c #4C494C",
"Y!	c #726B54",
"Z!	c #B04B30",
"[!	c #52413F",
"]!	c #B4B5B9",
"^!	c #716951",
"_!	c #F6D500",
"`!	c #F2D200",
"a!	c #D00F0C",
"b!	c #3D3A3A",
"c!	c #D4D7D9",
"d!	c #2A292D",
"e!	c #FBDA00",
"f!	c #3C3937",
"g!	c #DDC337",
"h!	c #352E30",
"i!	c #FDDB00",
"j!	c #E28000",
"k!	c #EBCF1A",
"l!	c #373534",
"m!	c #353231",
"n!	c #F7D600",
"o!	c #5B5648",
"p!	c #766D52",
"q!	c #B35E31",
"r!	c #333130",
"s!	c #4F4A43",
"t!	c #434044",
"u!	c #1F1F23",
"v!	c #6C6762",
"w!	c #827B6F",
"x!	c #797369",
"y!	c #6D6964",
"z!	c #6A6561",
"{!	c #635F5B",
"|!	c #595653",
"}!	c #555151",
"~!	c #B26041",
" #	c #656360",
"!#	c #302E30",
"##	c #726D65",
"$#	c #302F32",
"%#	c #5D5A56",
"&#	c #F6DD8D",
"'#	c #FEE186",
"(#	c #FFE289",
")#	c #F0D88D",
"*#	c #CFC090",
"+#	c #FFE184",
",#	c #FFE182",
"-#	c #BCB08A",
".#	c #E37D3C",
"0#	c #FFEC94",
"1#	c #FFE287",
"2#	c #F4BE6C",
"3#	c #FFE890",
"4#	c #A99E82",
"5#	c #FFE285",
"6#	c #A29A81",
"7#	c #464348",
"8#	c #9D957F",
"9#	c #FEE18A",
":#	c #FEE48E",
";#	c #EED791",
"<#	c #FFEE9A",
"=#	c #5F4944",
">#	c #EAA052",
"?#	c #FFE28C",
"@#	c #B9AD89",
"A#	c #FAE18D",
"B#	c #908776",
"C#	c #D5884F",
"D#	c #B2A586",
"E#	c #C4B78D",
"F#	c #444142",
"G#	c #B7AC89",
"H#	c #DECD90",
"I#	c #332F32",
"J#	c #ADA285",
"K#	c #E68E46",
"L#	c #2C262A",
"M#	c #5D453F",
"N#	c #544D4C",
"O#	c #FFE489",
"P#	c #FEE07D",
"Q#	c #F4DC91",
"R#	c #E4D191",
"S#	c #D5C390",
"T#	c #262528",
"U#	c #403B3C",
"V#	c #222023",
"W#	c #343033",
"X#	c #403C3D",
"Y#	c #BBB591",
"Z#	c #2D2B2E",
"[#	c #B37E5A",
"]#	c #FAE191",
"^#	c #312B2C",
"_#	c #393537",
"`#	c #393335",
"a#	c #BBBDC0",
"b#	c #BDBFC2",
"c#	c #BEC0C4",
"d#	c #BA8743",
"e#	c #BE8842",
"f#	c #CA8A39",
"g#	c #A9ABAE",
"h#	c #F08600",
"i#	c #4E4D52",
"j#	c #47474C",
"                                                                                                ",
"                                            # $ %                                               ",
"                                          & ' ( ) *                                             ",
"                                          + , - . 0 1                                           ",
"                                      2 ' 3 4 5 6 7 8 9                                         ",
"                                    # : ; < 5 = > 5 7 ? @                                       ",
"                                    A 3 4 5 = = = > 6 7 B %                                     ",
"                                C : D E 5 = = = = = > 5 F G H                                   ",
"                                + ; 4 5 = = = = = = = > 5 7 8 @                                 ",
"                            C : D E 5 = = = = = = = = = > 5 F G H                               ",
"                          # : I E 5 = = = J > > = K K K L J 5 M N @                             ",
"                        2 O D E 5 = 6 5 6 J E P Q R R R S L = 5 F T H                           ",
"                      C U V < 5 J 5 - W X Y 3 Z [ ] ^ ] _ ` a = 6 W b c                         ",
"                    2 d V e 5 6 6 M f g g h i ^ ] ] ] ] ] ^ ` = J a W j k                       ",
"                  C l V < 6 J e . g g g m Z ^ ] ] n o p ] q q r s J 6 W t u                     ",
"                & : g v w x w x g g g g y ] ] ] z { g ( | } } } ; x Y 3 ~  !!!                  ",
"              C U #!$!%!&!'!(!g g g g )!Z ^ ] ] ] *!+!o ,!,!,!-!.!0!0!%!$!1! !u                 ",
"            2 : 2!3!4!4!4!5!6!g g g g *!q ] ] ] ] 7!8!^ ^ ^ ^ ^ ` 5!4!4!4!4!$!9!:!              ",
"          C U #!3!4!4!4!4!4!#!g g g g ;!^ ] ] ] ] ] <!<!q ] ] ] _ =!>!4!4!4!4!6!?!c             ",
"        @!l (!3!4!4!4!4!4!3!A!g g g g B!^ ] ] ] C!Y D!E!F!<!] ] ] G!H!4!4!4!4!4!I!J!!!          ",
"      2 K!L!M!4!4!4!4!4!4!N!D!g g g g ,!^ ] ] O!P!1!g g g B!^ ] ^ Q!H!4!4!4!4!4!4!6!R!k         ",
"    @!l S!3!4!4!4!4!4!4!4!T!U!g g g g n ^ ] ] r 4!T!)!g g F!] ] ^ V!W!4!4!4!4!4!4!4!%!J!!!      ",
"  1 X!Y!4!4!4!4!4!4!4!4!4!I!g g g g g Z!^ ] ^ r 4!N!D!g g [!q ] ] O!P!>!4!4!4!4!4!4!4!I!g ]!    ",
"1 B ^!_!4!4!4!4!4!4!4!4!4!'!g g g g +!i ] ] ^ r >!`!?!g g ( z ] ] a!G!W!4!4!4!4!4!4!4!4!$!b!!!  ",
"c!d!6!4!4!4!4!4!4!4!4!4!4!1!g g g g ~ 7!] ] ^ V!>!e!f!g g D!8!] ] ] Q!H!4!4!4!4!4!4!4!4!N!b!$   ",
"  :!R!$!4!4!4!4!g!e!4!4!4!L!g g g g h!p ] ] ^ V!W!i!w g g U!i ] ] ^ j!H!4!4!k!_!4!4!4!N!l!+     ",
"    H T 6!4!4!`!m!T!4!4!n!l!g g g g | [ ] ] ^ R W!4!#!g g g n ^ ^ ^ V!>!4!4!2!$!5!4!g!w $ &     ",
"$ O A B g o!p!2!+!o!p!^!2!+!g g g g *!] ] ] ^ q!2!^!r!g g g [!;!;!F!I ^!^!^!f s!p!2!j N ' + A   ",
"t!u!v!w!x!y!z!{!+!|!y!y!}!g g g g g y ] ] ] ^ ~! #v!b g g g g g | F!y z!v!z!!#X!y!z!##x!w!b $#  ",
"8 ?!%#&#'#(#'#)#A!*#+#,#-#g g g g g ;!^ ] ] ^ .#0#1#x!g g g | o } 8!^ 2#3#1#%#4#,#(#(#5#6#t b   ",
"7#8#X!##9#:#(#;# !*#1#+#4#g g g g g o ^ ] ] ^ .#<#1#w!g g g =#^ F!{ 7!>#<#?#%#4#+#:#+#@#g 6#X!  ",
"7#@#A#w %#A#(#;# !*#1#1#x!g g g g g B!^ ] ] ^ .#<#1#B#g g g v [ [ =#{ C#3#:#|!4#'#1#D#A!E#&#F#  ",
"7#G#,#H#I#w!+#;# !*#,#J#g g g g g g ,!^ ] ] ^ K#<#+#B#g g g L#7!^ q M#N#)#O#|!4#P#E#g 6#,#Q#0   ",
"7#G#1#1#R#b!8#;#!#S#8#T#U#g g g g g n ^ ] ] ^ K#0#E#V#g g g g Z ^ ] <!| }!&#%#D#R#W#4#(#?#Q#0   ",
"7#G#5#:#+#H#A!v!X###U#S#{!g g g g U!i ^ ] ] ^ K#Y#I#z!)!g g g B!^ ] ^ z I  #{!z!W#4#,#?#O#)#0   ",
"7#J#:#Q#Q#:#@#Z#g u!G#A#F#g g g g R!i z p p [ [#?!B#-#g g g g F![ p p ^ C#T )!g y!&#]#Q#]#R#F#  ",
"7#?!W#W#W#W#U#T#g +!J!I#U!g g g g )!^#h h h h V#g _#A!g g g g R!h h h h `#?!g )!_#_#W#W#W#I#N   ",
"7#g g g g g g g g g g g g g g g g g g g g g g g g g g g g g g g g g g g g g g g g g g g g g ?   ",
"7#g g g g g g g g g g g g g g g g g g g g g g g g g g g g g g g g g g g g g g g g g g g g g ?   ",
"7#g g g g g g g g g g g g g g g g g g g g g g g g g g g g g g g g g g g g g g g g g g g g g G   ",
"7#g g g g g g g g g g g g g g g g g g +!)!g g g g g g +!)!g g g g g g g g g g g g g g g g g G   ",
"k a#b#b#b#b#b#b#b#b#b#b#b#b#b#b#c#c#l w d#e#d#d#d#d#f#. G g#!!b#b#b#b#b#b#b#b#b#b#b#b#b#b#a#!!  ",
"                                    % b 7 a a 5 5 h#f#m!g#                                      ",
"                                      * i#7 e 6 5 d#A!g#                                        ",
"                                        @!j#S!5 M D!c#                                          ",
"                                          * i#S!`#g#                                            ",
"                                            1 : c#                                              ",
"                                                                                                "};